<svg version="1.1" xmlns="http://www.w3.org/2000/svg" xmlns:xlink="http://www.w3.org/1999/xlink" width="789" height="980"><defs/><g><g><rect fill="#C0C0C0" stroke="none" x="23" y="23" width="307.2" height="15" transform="matrix(1 0 0 1 -6 -6)" fill-opacity="0.2"/></g><g><rect fill="#C0C0C0" stroke="none" x="23" y="37" width="768" height="946" transform="matrix(1 0 0 1 -6 -6)" fill-opacity="0.2"/></g><g><rect fill="#ffffff" stroke="none" x="16" y="31" width="768" height="945" transform="matrix(1 0 0 1 -6 -6)"/></g><g><path fill="none" stroke="#000000" paint-order="fill stroke markers" d=" M 10 25 L 778 25 L 778 970 L 10 970 L 10 25 Z Z" stroke-miterlimit="10" stroke-dasharray=""/></g><g><rect fill="#ffffff" stroke="none" x="16" y="16" width="307.2" height="15" transform="matrix(1 0 0 1 -6 -6)"/></g><g><path fill="none" stroke="#000000" paint-order="fill stroke markers" d=" M 10 10 L 317.2 10 L 317.2 25 L 10 25 L 10 10 Z Z" stroke-miterlimit="10" stroke-dasharray=""/></g><g><rect fill="#ffffff" stroke="none" x="16" y="30" width="768" height="946" transform="matrix(1 0 0 1 -6 -6)"/></g><g><path fill="none" stroke="#000000" paint-order="fill stroke markers" d=" M 10 24 L 778 24 L 778 970 L 10 970 L 10 24 Z Z" stroke-miterlimit="10" stroke-dasharray=""/></g><g><g><path fill="none" stroke="none"/><text fill="#000000" stroke="none" font-family="Arial" font-size="13px" font-style="normal" font-weight="bold" text-decoration="undefined" x="400.5" y="44.5" text-anchor="middle" dominant-baseline="central" transform="matrix(1 0 0 1 -6 -6)">Web Application</text></g></g><g><rect fill="#C0C0C0" stroke="none" x="87" y="327" width="275.2" height="15" transform="matrix(1 0 0 1 -6 -6)" fill-opacity="0.2"/></g><g><rect fill="#C0C0C0" stroke="none" x="87" y="341" width="688" height="194" transform="matrix(1 0 0 1 -6 -6)" fill-opacity="0.2"/></g><g><rect fill="#FFC1AD" stroke="none" x="80" y="335" width="688" height="193" transform="matrix(1 0 0 1 -6 -6)"/></g><g><path fill="none" stroke="#000000" paint-order="fill stroke markers" d=" M 74 329 L 762 329 L 762 522 L 74 522 L 74 329 Z Z" stroke-miterlimit="10" stroke-dasharray=""/></g><g><rect fill="#FFC1AD" stroke="none" x="80" y="320" width="275.2" height="15" transform="matrix(1 0 0 1 -6 -6)"/></g><g><path fill="none" stroke="#000000" paint-order="fill stroke markers" d=" M 74 314 L 349.2 314 L 349.2 329 L 74 329 L 74 314 Z Z" stroke-miterlimit="10" stroke-dasharray=""/></g><g><rect fill="#FFC1AD" stroke="none" x="80" y="334" width="688" height="194" transform="matrix(1 0 0 1 -6 -6)"/></g><g><path fill="none" stroke="#000000" paint-order="fill stroke markers" d=" M 74 328 L 762 328 L 762 522 L 74 522 L 74 328 Z Z" stroke-miterlimit="10" stroke-dasharray=""/></g><g><g><path fill="none" stroke="none"/><text fill="#000000" stroke="none" font-family="Arial" font-size="13px" font-style="normal" font-weight="bold" text-decoration="undefined" x="424.5" y="348.5" text-anchor="middle" dominant-baseline="central" transform="matrix(1 0 0 1 -6 -6)">Services</text></g></g><g><rect fill="#C0C0C0" stroke="none" x="39" y="71" width="294.4" height="15" transform="matrix(1 0 0 1 -6 -6)" fill-opacity="0.2"/></g><g><rect fill="#C0C0C0" stroke="none" x="39" y="85" width="736" height="226" transform="matrix(1 0 0 1 -6 -6)" fill-opacity="0.2"/></g><g><rect fill="#FFD6AD" stroke="none" x="32" y="79" width="736" height="225" transform="matrix(1 0 0 1 -6 -6)"/></g><g><path fill="none" stroke="#000000" paint-order="fill stroke markers" d=" M 26 73 L 762 73 L 762 298 L 26 298 L 26 73 Z Z" stroke-miterlimit="10" stroke-dasharray=""/></g><g><rect fill="#FFD6AD" stroke="none" x="32" y="64" width="294.4" height="15" transform="matrix(1 0 0 1 -6 -6)"/></g><g><path fill="none" stroke="#000000" paint-order="fill stroke markers" d=" M 26 58 L 320.4 58 L 320.4 73 L 26 73 L 26 58 Z Z" stroke-miterlimit="10" stroke-dasharray=""/></g><g><rect fill="#FFD6AD" stroke="none" x="32" y="78" width="736" height="226" transform="matrix(1 0 0 1 -6 -6)"/></g><g><path fill="none" stroke="#000000" paint-order="fill stroke markers" d=" M 26 72 L 762 72 L 762 298 L 26 298 L 26 72 Z Z" stroke-miterlimit="10" stroke-dasharray=""/></g><g><g><path fill="none" stroke="none"/><text fill="#000000" stroke="none" font-family="Arial" font-size="13px" font-style="normal" font-weight="bold" text-decoration="undefined" x="400.5" y="92.5" text-anchor="middle" dominant-baseline="central" transform="matrix(1 0 0 1 -6 -6)">Components</text></g></g><g><rect fill="#C0C0C0" stroke="none" x="55" y="111" width="281.6" height="15" transform="matrix(1 0 0 1 -6 -6)" fill-opacity="0.2"/></g><g><rect fill="#C0C0C0" stroke="none" x="55" y="125" width="704" height="170" transform="matrix(1 0 0 1 -6 -6)" fill-opacity="0.2"/></g><g><rect fill="#ffffff" stroke="none" x="48" y="119" width="704" height="169" transform="matrix(1 0 0 1 -6 -6)"/></g><g><path fill="none" stroke="#000000" paint-order="fill stroke markers" d=" M 42 113 L 746 113 L 746 282 L 42 282 L 42 113 Z Z" stroke-miterlimit="10" stroke-dasharray=""/></g><g><rect fill="#ffffff" stroke="none" x="48" y="104" width="281.6" height="15" transform="matrix(1 0 0 1 -6 -6)"/></g><g><path fill="none" stroke="#000000" paint-order="fill stroke markers" d=" M 42 98 L 323.6 98 L 323.6 113 L 42 113 L 42 98 Z Z" stroke-miterlimit="10" stroke-dasharray=""/></g><g><rect fill="#ffffff" stroke="none" x="48" y="118" width="704" height="170" transform="matrix(1 0 0 1 -6 -6)"/></g><g><path fill="none" stroke="#000000" paint-order="fill stroke markers" d=" M 42 112 L 746 112 L 746 282 L 42 282 L 42 112 Z Z" stroke-miterlimit="10" stroke-dasharray=""/></g><g><g><path fill="none" stroke="none"/><text fill="#000000" stroke="none" font-family="Arial" font-size="13px" font-style="normal" font-weight="bold" text-decoration="undefined" x="400.5" y="132.5" text-anchor="middle" dominant-baseline="central" transform="matrix(1 0 0 1 -6 -6)">private/teacher/course/course-details</text></g></g><g><rect fill="#C0C0C0" stroke="none" x="71" y="159" width="256" height="116" transform="matrix(1 0 0 1 -6 -6)" fill-opacity="0.2"/></g><g><rect fill="#ffffff" stroke="none" x="64" y="152" width="256" height="116" transform="matrix(1 0 0 1 -6 -6)"/></g><g><path fill="none" stroke="#000000" paint-order="fill stroke markers" d=" M 58 146 L 314 146 L 314 262 L 58 262 L 58 146 Z Z" stroke-miterlimit="10" stroke-dasharray=""/></g><g><path fill="none" stroke="#000000" paint-order="fill stroke markers" d=" M 58 171 L 314 171" stroke-miterlimit="10" stroke-dasharray=""/></g><g><path fill="none" stroke="#000000" paint-order="fill stroke markers" d=" M 58 209 L 314 209" stroke-miterlimit="10" stroke-dasharray=""/></g><g><g><path fill="none" stroke="none"/><text fill="#000000" stroke="none" font-family="Arial" font-size="13px" font-style="normal" font-weight="bold" text-decoration="undefined" x="192.5" y="165.5" text-anchor="middle" dominant-baseline="central" transform="matrix(1 0 0 1 -6 -6)">EnrolledUsersManagementComponent</text></g></g><g><g><path fill="none" stroke="none"/><text fill="#000000" stroke="none" font-family="Arial" font-size="13px" font-style="normal" font-weight="normal" text-decoration="undefined" x="69" y="188.5" text-anchor="start" dominant-baseline="central" transform="matrix(1 0 0 1 -6 -6)">+enrolledStudents: User[ ]</text></g></g><g><g><path fill="none" stroke="none"/><text fill="#000000" stroke="none" font-family="Arial" font-size="13px" font-style="normal" font-weight="normal" text-decoration="undefined" x="69" y="203.5" text-anchor="start" dominant-baseline="central" transform="matrix(1 0 0 1 -6 -6)">+enrolledTeachers: User[ ]</text></g></g><g><g><path fill="none" stroke="none"/><text fill="#000000" stroke="none" font-family="Arial" font-size="13px" font-style="normal" font-weight="normal" text-decoration="undefined" x="69" y="226.5" text-anchor="start" dominant-baseline="central" transform="matrix(1 0 0 1 -6 -6)">+refreshEnrollmentData()</text></g></g><g><g><path fill="none" stroke="none"/><text fill="#000000" stroke="none" font-family="Arial" font-size="13px" font-style="normal" font-weight="normal" text-decoration="undefined" x="69" y="241.5" text-anchor="start" dominant-baseline="central" transform="matrix(1 0 0 1 -6 -6)">+enrollSelectedUser()</text></g></g><g><g><path fill="none" stroke="none"/><text fill="#000000" stroke="none" font-family="Arial" font-size="13px" font-style="normal" font-weight="normal" text-decoration="undefined" x="69" y="256.5" text-anchor="start" dominant-baseline="central" transform="matrix(1 0 0 1 -6 -6)">+removeUser()</text></g></g><g><rect fill="#C0C0C0" stroke="none" x="103" y="367" width="262.4" height="15" transform="matrix(1 0 0 1 -6 -6)" fill-opacity="0.2"/></g><g><rect fill="#C0C0C0" stroke="none" x="103" y="381" width="656" height="130" transform="matrix(1 0 0 1 -6 -6)" fill-opacity="0.2"/></g><g><rect fill="#ffffff" stroke="none" x="96" y="375" width="656" height="129" transform="matrix(1 0 0 1 -6 -6)"/></g><g><path fill="none" stroke="#000000" paint-order="fill stroke markers" d=" M 90 369 L 746 369 L 746 498 L 90 498 L 90 369 Z Z" stroke-miterlimit="10" stroke-dasharray=""/></g><g><rect fill="#ffffff" stroke="none" x="96" y="360" width="262.4" height="15" transform="matrix(1 0 0 1 -6 -6)"/></g><g><path fill="none" stroke="#000000" paint-order="fill stroke markers" d=" M 90 354 L 352.4 354 L 352.4 369 L 90 369 L 90 354 Z Z" stroke-miterlimit="10" stroke-dasharray=""/></g><g><rect fill="#ffffff" stroke="none" x="96" y="374" width="656" height="130" transform="matrix(1 0 0 1 -6 -6)"/></g><g><path fill="none" stroke="#000000" paint-order="fill stroke markers" d=" M 90 368 L 746 368 L 746 498 L 90 498 L 90 368 Z Z" stroke-miterlimit="10" stroke-dasharray=""/></g><g><g><path fill="none" stroke="none"/><text fill="#000000" stroke="none" font-family="Arial" font-size="13px" font-style="normal" font-weight="bold" text-decoration="undefined" x="424.5" y="388.5" text-anchor="middle" dominant-baseline="central" transform="matrix(1 0 0 1 -6 -6)">rest-api</text></g></g><g><rect fill="#C0C0C0" stroke="none" x="119" y="415" width="328" height="80" transform="matrix(1 0 0 1 -6 -6)" fill-opacity="0.2"/></g><g><rect fill="#ffffff" stroke="none" x="112" y="408" width="328" height="80" transform="matrix(1 0 0 1 -6 -6)"/></g><g><path fill="none" stroke="#000000" paint-order="fill stroke markers" d=" M 106 402 L 434 402 L 434 482 L 106 482 L 106 402 Z Z" stroke-miterlimit="10" stroke-dasharray=""/></g><g><path fill="none" stroke="#000000" paint-order="fill stroke markers" d=" M 106 427 L 434 427" stroke-miterlimit="10" stroke-dasharray=""/></g><g><g><path fill="none" stroke="none"/><text fill="#000000" stroke="none" font-family="Arial" font-size="13px" font-style="normal" font-weight="bold" text-decoration="undefined" x="276.5" y="421.5" text-anchor="middle" dominant-baseline="central" transform="matrix(1 0 0 1 -6 -6)">CourseService</text></g></g><g><g><path fill="none" stroke="none"/><text fill="#000000" stroke="none" font-family="Arial" font-size="13px" font-style="normal" font-weight="normal" text-decoration="undefined" x="117" y="444.5" text-anchor="start" dominant-baseline="central" transform="matrix(1 0 0 1 -6 -6)">+getEnrolledUsersByCourse(course: Course)</text></g></g><g><g><path fill="none" stroke="none"/><text fill="#000000" stroke="none" font-family="Arial" font-size="13px" font-style="normal" font-weight="normal" text-decoration="undefined" x="117" y="459.5" text-anchor="start" dominant-baseline="central" transform="matrix(1 0 0 1 -6 -6)">+addUserToCourse(course: Course, user: User)</text></g></g><g><g><path fill="none" stroke="none"/><text fill="#000000" stroke="none" font-family="Arial" font-size="13px" font-style="normal" font-weight="normal" text-decoration="undefined" x="117" y="474.5" text-anchor="start" dominant-baseline="central" transform="matrix(1 0 0 1 -6 -6)">+removeUserFromCourse(course: Course, user: User)</text></g></g><g><rect fill="#C0C0C0" stroke="none" x="119" y="551" width="262.4" height="15" transform="matrix(1 0 0 1 -6 -6)" fill-opacity="0.2"/></g><g><rect fill="#C0C0C0" stroke="none" x="119" y="565" width="656" height="402" transform="matrix(1 0 0 1 -6 -6)" fill-opacity="0.2"/></g><g><rect fill="#FFADAD" stroke="none" x="112" y="559" width="656" height="401" transform="matrix(1 0 0 1 -6 -6)"/></g><g><path fill="none" stroke="#000000" paint-order="fill stroke markers" d=" M 106 553 L 762 553 L 762 954 L 106 954 L 106 553 Z Z" stroke-miterlimit="10" stroke-dasharray=""/></g><g><rect fill="#FFADAD" stroke="none" x="112" y="544" width="262.4" height="15" transform="matrix(1 0 0 1 -6 -6)"/></g><g><path fill="none" stroke="#000000" paint-order="fill stroke markers" d=" M 106 538 L 368.4 538 L 368.4 553 L 106 553 L 106 538 Z Z" stroke-miterlimit="10" stroke-dasharray=""/></g><g><rect fill="#FFADAD" stroke="none" x="112" y="558" width="656" height="402" transform="matrix(1 0 0 1 -6 -6)"/></g><g><path fill="none" stroke="#000000" paint-order="fill stroke markers" d=" M 106 552 L 762 552 L 762 954 L 106 954 L 106 552 Z Z" stroke-miterlimit="10" stroke-dasharray=""/></g><g><g><path fill="none" stroke="none"/><text fill="#000000" stroke="none" font-family="Arial" font-size="13px" font-style="normal" font-weight="bold" text-decoration="undefined" x="440.5" y="572.5" text-anchor="middle" dominant-baseline="central" transform="matrix(1 0 0 1 -6 -6)">Model</text></g></g><g><rect fill="#C0C0C0" stroke="none" x="247" y="767" width="204.8" height="15" transform="matrix(1 0 0 1 -6 -6)" fill-opacity="0.2"/></g><g><rect fill="#C0C0C0" stroke="none" x="247" y="781" width="512" height="170" transform="matrix(1 0 0 1 -6 -6)" fill-opacity="0.2"/></g><g><rect fill="#ffffff" stroke="none" x="240" y="775" width="512" height="169" transform="matrix(1 0 0 1 -6 -6)"/></g><g><path fill="none" stroke="#000000" paint-order="fill stroke markers" d=" M 234 769 L 746 769 L 746 938 L 234 938 L 234 769 Z Z" stroke-miterlimit="10" stroke-dasharray=""/></g><g><rect fill="#ffffff" stroke="none" x="240" y="760" width="204.8" height="15" transform="matrix(1 0 0 1 -6 -6)"/></g><g><path fill="none" stroke="#000000" paint-order="fill stroke markers" d=" M 234 754 L 438.8 754 L 438.8 769 L 234 769 L 234 754 Z Z" stroke-miterlimit="10" stroke-dasharray=""/></g><g><rect fill="#ffffff" stroke="none" x="240" y="774" width="512" height="170" transform="matrix(1 0 0 1 -6 -6)"/></g><g><path fill="none" stroke="#000000" paint-order="fill stroke markers" d=" M 234 768 L 746 768 L 746 938 L 234 938 L 234 768 Z Z" stroke-miterlimit="10" stroke-dasharray=""/></g><g><g><path fill="none" stroke="none"/><text fill="#000000" stroke="none" font-family="Arial" font-size="13px" font-style="normal" font-weight="bold" text-decoration="undefined" x="496.5" y="788.5" text-anchor="middle" dominant-baseline="central" transform="matrix(1 0 0 1 -6 -6)">rest-api</text></g></g><g><rect fill="#C0C0C0" stroke="none" x="135" y="623" width="144.37353515625" height="78" transform="matrix(1 0 0 1 -6 -6)" fill-opacity="0.2"/></g><g><rect fill="#ffffff" stroke="none" x="128" y="616" width="144.37353515625" height="78" transform="matrix(1 0 0 1 -6 -6)"/></g><g><path fill="none" stroke="#000000" paint-order="fill stroke markers" d=" M 122 610 L 266.37353515625 610 L 266.37353515625 688 L 122 688 L 122 610 Z Z" stroke-miterlimit="10" stroke-dasharray=""/></g><g><path fill="none" stroke="#000000" paint-order="fill stroke markers" d=" M 122 635 L 266.37353515625 635" stroke-miterlimit="10" stroke-dasharray=""/></g><g><g><path fill="none" stroke="none"/><text fill="#000000" stroke="none" font-family="Arial" font-size="13px" font-style="normal" font-weight="bold" text-decoration="undefined" x="200.686767578125" y="629.5" text-anchor="middle" dominant-baseline="central" transform="matrix(1 0 0 1 -6 -6)">Course</text></g></g><g><g><path fill="none" stroke="none"/><text fill="#000000" stroke="none" font-family="Arial" font-size="13px" font-style="normal" font-weight="normal" text-decoration="undefined" x="133" y="652.5" text-anchor="start" dominant-baseline="central" transform="matrix(1 0 0 1 -6 -6)">-id: number</text></g></g><g><g><path fill="none" stroke="none"/><text fill="#000000" stroke="none" font-family="Arial" font-size="13px" font-style="normal" font-weight="normal" text-decoration="undefined" x="133" y="667.5" text-anchor="start" dominant-baseline="central" transform="matrix(1 0 0 1 -6 -6)">-name: string</text></g></g><g><g><path fill="none" stroke="none"/><text fill="#000000" stroke="none" font-family="Arial" font-size="13px" font-style="normal" font-weight="normal" text-decoration="undefined" x="133" y="682.5" text-anchor="start" dominant-baseline="central" transform="matrix(1 0 0 1 -6 -6)">-exercises?: Exercise[ ]</text></g></g><g><rect fill="#C0C0C0" stroke="none" x="543" y="623" width="119.814453125" height="123" transform="matrix(1 0 0 1 -6 -6)" fill-opacity="0.2"/></g><g><rect fill="#ffffff" stroke="none" x="536" y="616" width="119.814453125" height="123" transform="matrix(1 0 0 1 -6 -6)"/></g><g><path fill="none" stroke="#000000" paint-order="fill stroke markers" d=" M 530 610 L 649.814453125 610 L 649.814453125 733 L 530 733 L 530 610 Z Z" stroke-miterlimit="10" stroke-dasharray=""/></g><g><path fill="none" stroke="#000000" paint-order="fill stroke markers" d=" M 530 635 L 649.814453125 635" stroke-miterlimit="10" stroke-dasharray=""/></g><g><g><path fill="none" stroke="none"/><text fill="#000000" stroke="none" font-family="Arial" font-size="13px" font-style="normal" font-weight="bold" text-decoration="undefined" x="596.4072265625" y="629.5" text-anchor="middle" dominant-baseline="central" transform="matrix(1 0 0 1 -6 -6)">User</text></g></g><g><g><path fill="none" stroke="none"/><text fill="#000000" stroke="none" font-family="Arial" font-size="13px" font-style="normal" font-weight="normal" text-decoration="undefined" x="541" y="652.5" text-anchor="start" dominant-baseline="central" transform="matrix(1 0 0 1 -6 -6)">-id: number</text></g></g><g><g><path fill="none" stroke="none"/><text fill="#000000" stroke="none" font-family="Arial" font-size="13px" font-style="normal" font-weight="normal" text-decoration="undefined" x="541" y="667.5" text-anchor="start" dominant-baseline="central" transform="matrix(1 0 0 1 -6 -6)">-username: string</text></g></g><g><g><path fill="none" stroke="none"/><text fill="#000000" stroke="none" font-family="Arial" font-size="13px" font-style="normal" font-weight="normal" text-decoration="undefined" x="541" y="682.5" text-anchor="start" dominant-baseline="central" transform="matrix(1 0 0 1 -6 -6)">-email?: string</text></g></g><g><g><path fill="none" stroke="none"/><text fill="#000000" stroke="none" font-family="Arial" font-size="13px" font-style="normal" font-weight="normal" text-decoration="undefined" x="541" y="697.5" text-anchor="start" dominant-baseline="central" transform="matrix(1 0 0 1 -6 -6)">-name: string</text></g></g><g><g><path fill="none" stroke="none"/><text fill="#000000" stroke="none" font-family="Arial" font-size="13px" font-style="normal" font-weight="normal" text-decoration="undefined" x="541" y="712.5" text-anchor="start" dominant-baseline="central" transform="matrix(1 0 0 1 -6 -6)">-lastName: string</text></g></g><g><g><path fill="none" stroke="none"/><text fill="#000000" stroke="none" font-family="Arial" font-size="13px" font-style="normal" font-weight="normal" text-decoration="undefined" x="541" y="727.5" text-anchor="start" dominant-baseline="central" transform="matrix(1 0 0 1 -6 -6)">-roles: Role[ ]</text></g></g><g><rect fill="#C0C0C0" stroke="none" x="255" y="807" width="174.84228515625" height="91" transform="matrix(1 0 0 1 -6 -6)" fill-opacity="0.2"/></g><g><rect fill="#ffffff" stroke="none" x="248" y="800" width="174.84228515625" height="91" transform="matrix(1 0 0 1 -6 -6)"/></g><g><path fill="none" stroke="#000000" paint-order="fill stroke markers" d=" M 242 794 L 416.84228515625 794 L 416.84228515625 885 L 242 885 L 242 794 Z Z" stroke-miterlimit="10" stroke-dasharray=""/></g><g><path fill="none" stroke="#000000" paint-order="fill stroke markers" d=" M 242 832 L 416.84228515625 832" stroke-miterlimit="10" stroke-dasharray=""/></g><g><g><path fill="none" stroke="none"/><text fill="#000000" stroke="none" font-family="Arial" font-size="13px" font-style="normal" font-weight="normal" text-decoration="undefined" x="335.921142578125" y="811.5" text-anchor="middle" dominant-baseline="central" transform="matrix(1 0 0 1 -6 -6)">«interface»</text></g></g><g><g><path fill="none" stroke="none"/><text fill="#000000" stroke="none" font-family="Arial" font-size="13px" font-style="normal" font-weight="bold" text-decoration="undefined" x="335.921142578125" y="826.5" text-anchor="middle" dominant-baseline="central" transform="matrix(1 0 0 1 -6 -6)">CourseDTO</text></g></g><g><g><path fill="none" stroke="none"/><text fill="#000000" stroke="none" font-family="Arial" font-size="13px" font-style="normal" font-weight="normal" text-decoration="undefined" x="253" y="849.5" text-anchor="start" dominant-baseline="central" transform="matrix(1 0 0 1 -6 -6)">+id: number</text></g></g><g><g><path fill="none" stroke="none"/><text fill="#000000" stroke="none" font-family="Arial" font-size="13px" font-style="normal" font-weight="normal" text-decoration="undefined" x="253" y="864.5" text-anchor="start" dominant-baseline="central" transform="matrix(1 0 0 1 -6 -6)">+name: string</text></g></g><g><g><path fill="none" stroke="none"/><text fill="#000000" stroke="none" font-family="Arial" font-size="13px" font-style="normal" font-weight="normal" text-decoration="undefined" x="253" y="879.5" text-anchor="start" dominant-baseline="central" transform="matrix(1 0 0 1 -6 -6)">+exercises?: ExerciseDTO[ ]</text></g></g><g><path fill="none" stroke="#000000" paint-order="fill stroke markers" d=" M 34 298 L 34 594 L 106 594" stroke-miterlimit="10" stroke-dasharray="3"/></g><g><path fill="none" stroke="#000000" paint-order="fill stroke markers" d=" M 95.83732514237585 598.209517756016 L 106 594 L 95.83732514237585 589.790482243984" stroke-miterlimit="10" stroke-dasharray=""/></g><g><path fill="none" stroke="#000000" paint-order="fill stroke markers" d=" M 50 298 L 50 346 L 74 346" stroke-miterlimit="10" stroke-dasharray="3"/></g><g><path fill="none" stroke="#000000" paint-order="fill stroke markers" d=" M 63.837325142375846 350.209517756016 L 74 346 L 63.837325142375846 341.790482243984" stroke-miterlimit="10" stroke-dasharray=""/></g><g><path fill="none" stroke="#000000" paint-order="fill stroke markers" d=" M 82 522 L 82 570 L 106 570" stroke-miterlimit="10" stroke-dasharray="3"/></g><g><path fill="none" stroke="#000000" paint-order="fill stroke markers" d=" M 95.83732514237585 574.209517756016 L 106 570 L 95.83732514237585 565.790482243984" stroke-miterlimit="10" stroke-dasharray=""/></g><g><rect fill="#C0C0C0" stroke="none" x="591" y="807" width="157.51318359375" height="136" transform="matrix(1 0 0 1 -6 -6)" fill-opacity="0.2"/></g><g><rect fill="#ffffff" stroke="none" x="584" y="800" width="157.51318359375" height="136" transform="matrix(1 0 0 1 -6 -6)"/></g><g><path fill="none" stroke="#000000" paint-order="fill stroke markers" d=" M 578 794 L 735.51318359375 794 L 735.51318359375 930 L 578 930 L 578 794 Z Z" stroke-miterlimit="10" stroke-dasharray=""/></g><g><path fill="none" stroke="#000000" paint-order="fill stroke markers" d=" M 578 832 L 735.51318359375 832" stroke-miterlimit="10" stroke-dasharray=""/></g><g><g><path fill="none" stroke="none"/><text fill="#000000" stroke="none" font-family="Arial" font-size="13px" font-style="normal" font-weight="normal" text-decoration="undefined" x="663.256591796875" y="811.5" text-anchor="middle" dominant-baseline="central" transform="matrix(1 0 0 1 -6 -6)">«interface»</text></g></g><g><g><path fill="none" stroke="none"/><text fill="#000000" stroke="none" font-family="Arial" font-size="13px" font-style="normal" font-weight="bold" text-decoration="undefined" x="663.256591796875" y="826.5" text-anchor="middle" dominant-baseline="central" transform="matrix(1 0 0 1 -6 -6)">UserDTO</text></g></g><g><g><path fill="none" stroke="none"/><text fill="#000000" stroke="none" font-family="Arial" font-size="13px" font-style="normal" font-weight="normal" text-decoration="undefined" x="589" y="849.5" text-anchor="start" dominant-baseline="central" transform="matrix(1 0 0 1 -6 -6)">+id: number</text></g></g><g><g><path fill="none" stroke="none"/><text fill="#000000" stroke="none" font-family="Arial" font-size="13px" font-style="normal" font-weight="normal" text-decoration="undefined" x="589" y="864.5" text-anchor="start" dominant-baseline="central" transform="matrix(1 0 0 1 -6 -6)">+username: string</text></g></g><g><g><path fill="none" stroke="none"/><text fill="#000000" stroke="none" font-family="Arial" font-size="13px" font-style="normal" font-weight="normal" text-decoration="undefined" x="589" y="879.5" text-anchor="start" dominant-baseline="central" transform="matrix(1 0 0 1 -6 -6)">+name: string</text></g></g><g><g><path fill="none" stroke="none"/><text fill="#000000" stroke="none" font-family="Arial" font-size="13px" font-style="normal" font-weight="normal" text-decoration="undefined" x="589" y="894.5" text-anchor="start" dominant-baseline="central" transform="matrix(1 0 0 1 -6 -6)">+lastName: string</text></g></g><g><g><path fill="none" stroke="none"/><text fill="#000000" stroke="none" font-family="Arial" font-size="13px" font-style="normal" font-weight="normal" text-decoration="undefined" x="589" y="909.5" text-anchor="start" dominant-baseline="central" transform="matrix(1 0 0 1 -6 -6)">+email?: string</text></g></g><g><g><path fill="none" stroke="none"/><text fill="#000000" stroke="none" font-family="Arial" font-size="13px" font-style="normal" font-weight="normal" text-decoration="undefined" x="589" y="924.5" text-anchor="start" dominant-baseline="central" transform="matrix(1 0 0 1 -6 -6)">+roles?: RoleDTO[ ]</text></g></g><g><path fill="none" stroke="#000000" paint-order="fill stroke markers" d=" M 602 733 L 602 794" stroke-miterlimit="10" stroke-dasharray=""/></g><g><path fill="none" stroke="#000000" paint-order="fill stroke markers" d=" M 194 688 L 194 810 L 242 810" stroke-miterlimit="10" stroke-dasharray=""/></g><g><path fill="none" stroke="#000000" paint-order="fill stroke markers" d=" M 346 482 L 346 794" stroke-miterlimit="10" stroke-dasharray="3"/></g><g><path fill="none" stroke="#000000" paint-order="fill stroke markers" d=" M 341.790482243984 783.8373251423759 L 346 794 L 350.209517756016 783.8373251423759" stroke-miterlimit="10" stroke-dasharray=""/></g><g><path fill="none" stroke="#000000" paint-order="fill stroke markers" d=" M 434 410 L 690 410 L 690 794" stroke-miterlimit="10" stroke-dasharray="3"/></g><g><path fill="none" stroke="#000000" paint-order="fill stroke markers" d=" M 685.790482243984 783.8373251423759 L 690 794 L 694.209517756016 783.8373251423759" stroke-miterlimit="10" stroke-dasharray=""/></g><g><path fill="none" stroke="#000000" paint-order="fill stroke markers" d=" M 266 642 L 530 642" stroke-miterlimit="10" stroke-dasharray=""/></g><g><rect fill="#FFFFFF00" stroke="none" x="280" y="632" width="53.11083984375" height="13" transform="matrix(1 0 0 1 -6 -6)"/></g><g><g><path fill="none" stroke="none"/><text fill="#000000" stroke="none" font-family="Arial" font-size="13px" font-style="normal" font-weight="normal" text-decoration="undefined" x="306.555419921875" y="638.5" text-anchor="middle" dominant-baseline="central" transform="matrix(1 0 0 1 -6 -6)">+creator</text></g></g><g><rect fill="#FFFFFF00" stroke="none" x="280" y="654" width="21.68359375" height="13" transform="matrix(1 0 0 1 -6 -6)"/></g><g><g><path fill="none" stroke="none"/><text fill="#000000" stroke="none" font-family="Arial" font-size="13px" font-style="normal" font-weight="normal" text-decoration="undefined" x="290.841796875" y="660.5" text-anchor="middle" dominant-baseline="central" transform="matrix(1 0 0 1 -6 -6)">0..1</text></g></g><g><rect fill="#FFFFFF00" stroke="none" x="480" y="630" width="53.11083984375" height="13" transform="matrix(1 0 0 1 -6 -6)"/></g><g><g><path fill="none" stroke="none"/><text fill="#000000" stroke="none" font-family="Arial" font-size="13px" font-style="normal" font-weight="normal" text-decoration="undefined" x="506.555419921875" y="636.5" text-anchor="middle" dominant-baseline="central" transform="matrix(1 0 0 1 -6 -6)">+courses</text></g></g><g><rect fill="#FFFFFF00" stroke="none" x="512" y="654" width="19.5126953125" height="13" transform="matrix(1 0 0 1 -6 -6)"/></g><g><g><path fill="none" stroke="none"/><text fill="#000000" stroke="none" font-family="Arial" font-size="13px" font-style="normal" font-weight="normal" text-decoration="undefined" x="521.75634765625" y="660.5" text-anchor="middle" dominant-baseline="central" transform="matrix(1 0 0 1 -6 -6)">0..*</text></g></g><g><path fill="none" stroke="#000000" paint-order="fill stroke markers" d=" M 194 482 L 194 610" stroke-miterlimit="10" stroke-dasharray=""/></g><g><path fill="none" stroke="#000000" paint-order="fill stroke markers" d=" M 189.790482243984 599.8373251423759 L 194 610 L 198.209517756016 599.8373251423759" stroke-miterlimit="10" stroke-dasharray=""/></g><g><path fill="none" stroke="#000000" paint-order="fill stroke markers" d=" M 434 426 L 602 426 L 602 610" stroke-miterlimit="10" stroke-dasharray=""/></g><g><path fill="none" stroke="#000000" paint-order="fill stroke markers" d=" M 597.790482243984 599.8373251423759 L 602 610 L 606.209517756016 599.8373251423759" stroke-miterlimit="10" stroke-dasharray=""/></g><g><path fill="none" stroke="#000000" paint-order="fill stroke markers" d=" M 417 861 L 578 861" stroke-miterlimit="10" stroke-dasharray=""/></g><g><rect fill="#ffffff" stroke="none" x="432" y="848" width="48.0517578125" height="13" transform="matrix(1 0 0 1 -6 -6)"/></g><g><g><path fill="none" stroke="none"/><text fill="#000000" stroke="none" font-family="Arial" font-size="13px" font-style="normal" font-weight="normal" text-decoration="undefined" x="456.02587890625" y="854.5" text-anchor="middle" dominant-baseline="central" transform="matrix(1 0 0 1 -6 -6)">+creator</text></g></g><g><rect fill="#ffffff" stroke="none" x="434" y="873" width="21.68359375" height="13" transform="matrix(1 0 0 1 -6 -6)"/></g><g><g><path fill="none" stroke="none"/><text fill="#000000" stroke="none" font-family="Arial" font-size="13px" font-style="normal" font-weight="normal" text-decoration="undefined" x="444.841796875" y="879.5" text-anchor="middle" dominant-baseline="central" transform="matrix(1 0 0 1 -6 -6)">0..1</text></g></g><g><rect fill="#ffffff" stroke="none" x="528" y="847" width="53.11083984375" height="13" transform="matrix(1 0 0 1 -6 -6)"/></g><g><g><path fill="none" stroke="none"/><text fill="#000000" stroke="none" font-family="Arial" font-size="13px" font-style="normal" font-weight="normal" text-decoration="undefined" x="554.555419921875" y="853.5" text-anchor="middle" dominant-baseline="central" transform="matrix(1 0 0 1 -6 -6)">+courses</text></g></g><g><rect fill="#ffffff" stroke="none" x="560" y="873" width="19.5126953125" height="13" transform="matrix(1 0 0 1 -6 -6)"/></g><g><g><path fill="none" stroke="none"/><text fill="#000000" stroke="none" font-family="Arial" font-size="13px" font-style="normal" font-weight="normal" text-decoration="undefined" x="569.75634765625" y="879.5" text-anchor="middle" dominant-baseline="central" transform="matrix(1 0 0 1 -6 -6)">0..*</text></g></g><g><path fill="none" stroke="#000000" paint-order="fill stroke markers" d=" M 194 262 L 194 402" stroke-miterlimit="10" stroke-dasharray=""/></g><g><path fill="none" stroke="#000000" paint-order="fill stroke markers" d=" M 189.790482243984 391.83732514237585 L 194 402 L 198.209517756016 391.83732514237585" stroke-miterlimit="10" stroke-dasharray=""/></g></g></svg>